<svg version="1.1" id="Layer_1" xmlns="http://www.w3.org/2000/svg" xmlns:xlink="http://www.w3.org/1999/xlink" x="0px" y="0px"
	 width="473.489px" height="403.549px" viewBox="0 0 473.489 403.549" style="enable-background:new 0 0 473.489 403.549;"
	 xml:space="preserve">
<g>
	<defs>
		<rect id="SVGID_1_" width="473.489" height="403.549"/>
	</defs>
	<clipPath id="SVGID_2_">
		<use xlink:href="#SVGID_1_"  style="overflow:visible;"/>
	</clipPath>
	<path style="clip-path:url(#SVGID_2_);fill:#12A035;" d="M292.194,5.3c3.197-0.615,6.836,0.563,12.654,6.873l4.621,1.112
		c1.87,1.036,2.872,12.837,2.778,14.373c-1.155,18.713-12.458,26.43-14.315,33.852c-9.801,10.263-15.859,25.721-25.232,36.519
		c-4.419,8.867-14.493,23.996-18.931,32.491l4.034-2.272c22.375-21.79,43.844-41.556,69.739-57.314
		c2.509-6.519,25.138-15.743,26.8-24.116c5.411-0.83,5.948,0.089,11.374-0.558c3.961,2.445,16.386,3.155,19.016,7.358
		c-0.964,0.986,0.764,16.075-0.172,17.628c-0.604,4.164-5.684,14.786-5.679,18.928c-1.391,4.583-4.4,13.325-5.986,17.919
		c-2.553,1.625-5.486,7.811-5.486,7.811c0.097,2.647-2.568,4.145-3.98,10.704c-2.646,3.674-3.723,9.79-5.451,11.564
		c2.976,3.054-4.305,9.958,2.319,8.887c9.962,6.789,19.682,2.857,34.397-2.183c3.477-3.051,7.365-2.962,9.075-5.108
		c20.344-9.655,33.081-25.082,53.069-38.531c0,0,12.557-10.248,15.989-11.111c0.921,0.768,0.61,3.162,0.61,3.162
		s-4.9,8.037-5.678,9.132l-2.906,4.522l-2.998,2.649c-7.798,8.003-1.78,1.964-1.78,1.964c0.41-0.021-0.396,0.209,0,0
		c-0.664,1.825-1.658,0.365-6.56,6.578l-1.125,2.558c0,0,0.396-0.658-5.372,5.267c-0.945,0.449-1.154,3.425-1.867,4.29
		c-0.798,0.642-3.877,2.602-4.806,4.34c-0.723,0.639-3.459,3.818-3.459,3.818c-0.711,0.695-2.371,1.402-3.548,1.987
		c-0.757,1.316-0.459,1.975-1.257,2.353c-1.79,2.104-1.133,1.592-3.529,2.453c0,0,0.365,1.883-1.252,2.342
		c-0.638-0.717-3.938,3.386-3.938,3.386s-3.875,3.384-3.939,3.386c0,0-2.495,5.018-8.309,8.414
		c-2.067,3.117-2.756,3.762-6.535,5.084l-8.443,4.517l-7.6,5.498c-7.604,3.482-15.499,7.037-28.239,7.662
		c-3.162,0.612-10.294-2.23-11.507-2.171c-8.238,0.969-11.041-2.687-16.928-7.292c-16.536-18.273,8.174-86.332,6.323-76.732
		c-13.366,7.614-23.586,25.575-36.077,34.649c-2.98,6.754-9.839,8.366-16.453,18.151c-8.136,7.168-15.693,15.678-27.463,18.69
		c-12.416,12.491-20.674,5.563-24.455,4.998c-8.566-0.857-10.299-6.801-14.607-8.098c-11.19-15.333,2.25-37.301,5.296-53.438
		c9.315-23.595,22.426-46.212,36.019-64.561l-12.008,6.001c-13.873,10.301-32.335,15.801-56.335,47.301
		c-7.456,9.786-7.747,8.654-14.763,18.023c-3.465,3.556-3.527,8.062-9.372,16.993l-7.76,11.225l-8.062,10.077
		c-12.209,12.72-12.176,11.241-17.636,19.147c0,0-2.015,4.031-9.075,2.434c-2.292-1.388-2.965-4.764-4.938-6.042
		c-9.59-6.215-9.375-12.218-9.375-12.218c-0.466-1.297-0.238-3.878-0.904-5.157c-0.791-2.886,1.192-8.834,2.767-9.888
		c1.525-3.562,1.787-3.337,1.787-3.337c-1.34-7.411,3.698-10.497,4.599-12.253c6.635-3.901,11.577-12.047,16.539-17.933
		c4.63-8.685,6.306-13.877,9.693-23.071c-0.657-1.094,2.519-12.301-3-9c-42.98,46.544-73.383,85.386-94.929,105.976
		c-4.415,5.569-25.071,27.524-29.571,15.524c-2.978-0.479-29.821-14.414-12.092-44.706c13.482-23.035,36.699-51.877,56.142-68.431
		l37.614-28.355c2.788-3.904,16.915-10.296,19.696-11.998c-4.456,0.97,11.391-2.625,15.689-1.519
		c5.14-2.323,14.997,2.647,19.544,0.542c4.639-0.171,10.754-1.477,14.375,2.298c5.265,2.256,3.299,1.692,8.418,3.138
		c9.219-10.96,21.601-14.528,36.982-26.384c0.898-2.304,10.085-6.877,13.934-6.688c2.189,3.458,8.618-7.929,13.149-7.401
		c5.606-1.029,7.426-4.68,13.187-6.652c5.807-4.039,15.942-9.358,23.76-6.542L292.194,5.3z"/>
	<polygon style="clip-path:url(#SVGID_2_);fill:#666565;" points="169.678,204.556 156.324,204.556 156.327,282.285 
		169.708,282.285 	"/>
	<path style="clip-path:url(#SVGID_2_);fill:#666565;" d="M134.196,211.282h4.528v12.353h-7.505
		c0.129-1.849,0.103-2.942,0.103-2.942l0.078-8.059H96.955v6.887h22.962c0.313,33.883-26.789,43.629-26.789,43.629l1.529,3.825
		c24.394-4.609,32.567-22.675,35.3-34.825h8.767v9.969h-10.306v7.2h10.306v32.966h13.012l0.23-77.681l-17.78,0.013L134.196,211.282z
		"/>
	<path style="clip-path:url(#SVGID_2_);fill:#666565;" d="M314.999,209.8h-17.663v6.822h3.211l-0.142,7.479
		c0,0,0.589,21.01-18.721,34.269l4.011,4.016c0,0,15.496-5.689,21.277-17.664c0,0,5.803,12.17,20.059,17.558l3.612-5.624
		c0,0-15.016-10.76-15.784-33.141L314.999,209.8z"/>
	<polygon style="clip-path:url(#SVGID_2_);fill:#666565;" points="338.01,204.633 357.075,204.64 357.075,282.622 342.823,282.622 
		342.823,211.659 338.019,211.659 	"/>
	<path style="clip-path:url(#SVGID_2_);fill:#666565;" d="M252.619,239.952v-4.92h10.218v-7.233h-46.619v-3.338h46.22v-18.759
		h-63.525v7.634h49.307v3.741h-49.144v7.352h2.877v10.604h10.572v4.92h-20.533v7.033h77.774v-7.033H252.619z M226.22,235.032h12.822
		v4.92H226.22V235.032z"/>
	<path style="clip-path:url(#SVGID_2_);fill:#666565;" d="M231.251,249.392c-17.309,0-31.346,7.464-31.346,16.668
		c0,9.213,14.037,16.678,31.346,16.678c17.306,0,31.342-7.465,31.342-16.678C262.594,256.855,248.558,249.392,231.251,249.392
		 M231.504,275.46c-8.972,0.011-17.099-4.443-17.143-9.365c-0.04-4.563,7.712-9.439,16.957-9.41
		c8.271,0.027,17.11,4.313,16.865,9.41C247.93,271.415,239.909,275.448,231.504,275.46"/>
	<path style="clip-path:url(#SVGID_2_);fill:#0061B0;" d="M68.652,306.497l-6.948,0.992h-5.955l-4.224,4.412l-0.424,9.217
		c0,0,4.504,10.246,7.524,13.158c0,0-0.971-0.445,11.663,3.43c0,0,11.388,3.879,33.125,1.947l15.744,1.199l11.228-1.205
		c0,0,22.542,0.297,27.116-0.322l6.291-0.635l5.829-1.08l3.355-0.104l3.967-0.662l2.289-0.021l4.574-0.617l4.451-0.219l4.116,0.414
		l2.84-0.924l4.258-0.001l7.098-0.002h4.258l1.893,0.462l5.205-0.465l4.732-0.002l4.259-0.461l6.151-0.463l4.54-0.02l4.001-0.613
		l5.655,0.166h5.205l3.447-0.879l3.433-0.035l5.726-0.059l4.57-1.188l4.572-0.617l5.224,0.461h2.842l2.806-1.141l3.436-0.035
		l2.29-0.023l3.43-0.605l7.384-1.014l4.669-0.67l5.097-0.773l4.58-0.047l4.164,0.607l6.707-1.287l4.012,0.531l4.582-0.045
		l3.615-0.346l4.222-1.311l5.88-0.768l3.429-0.605l5.141-1.195l2.746,0.029l6.536-0.688l4.528-1.564l5.354-0.648l4.484-1.984h2.473
		l5.938-1.482l4.947-0.99l2.751,0.144l12.719-3.909l2.455-2.104l-3.156-2.456l-7.017,0.352l-3.155-0.702l-3.859,0.351l-3.858-1.052
		h-8.066l-6.315-0.351l-8.84,0.418l-9.397-0.418l-6.316,0.822l-5.042-0.107l-2.875,0.603l-2.473-0.495l-3.695,0.561l-3.2-0.924
		l-4.979,0.363l-3.489-0.121l-4.641-0.35l-2.802,0.34l-1.527-1.042l-3.792,0.995l-2.172-0.294l-4.121,0.167l-5.956-0.992h-8.934
		l-2.386,0.124h-2.104l-3.858,0.351l-4.361,0.68l-7.445-0.498l-5.153,0.051l-8.244,0.34l-3.909-0.923h-3.156l-5.259,1.117
		l-4.621-0.282l-5.555-0.134l-3.858-0.351h-2.104h-3.507l-3.004-0.183l-3.786,0.001l-3.206,1.054l-2.84-0.461l-6.625-0.46
		c0,0-10.999-1.324-19.4,0.005c0,0-26.301,0.224-36.908-0.915c0,0-22.399-1.617-34.062-0.931c0,0-20.577,0.866-27.441,0
		C90.184,304.09,70.068,303.708,68.652,306.497"/>
	<path style="clip-path:url(#SVGID_2_);fill:#0061B0;" d="M40.45,360.202l-7.513,1.471l-7.319,1.66l-1.365,5.828
		c0,0-1.138,6.377,1.161,10.076l4.74,8.305l4.266,1.931c0,0-2.862,1.702,6.623,6.286c0,0,17.139,7.854,45.189,6.059
		c0,0,22.595,2.326,34.783,1.586c0,0,31.933-0.822,39.612-2.092c0,0,9.91-0.255,14.315-0.369c0,0,18.113-2.613,24.706-3.318
		c2.201-0.059,5.987-2.838,10.391-2.951c0,0,11.506-2.443,17.591-1.525c0,0,14.792-3.064,19.806-1.049c0,0,10.501,1.34,15.966-0.408
		l12.648-0.865l6.578-1.242c0,0,9.855-2.398,13.724-1.961c0,0,10.46-0.27,16.53,0.111c0,0,5.506-0.143,12.098-0.85
		c0,0,5.451-2.285,7.667-1.807c0,0,2.661,0.326,7.023-1.396l7.8-0.597l3.854-0.098c3.854-0.099,1.642-0.594,3.854-0.099
		c1.277,0.284,16.41-4.362,6.365-1.726c-2.715,0.713,2.981,0.947,2.981,0.947s2.406-1.883,5.159-1.953
		c2.752-0.072,2.543-0.002,2.543-0.002l5.385,0.149l3.275-1.155c0,0,1.896-1.465,3.549-1.506c1.652-0.045,1.524-0.002,1.524-0.002
		l4.579-1.006h4.578l7.123-1.51c0,0,8.377-0.104,14.942-1.883c0,0,4.899-2.272,7.667-1.809l6.578-1.242l5.491-0.677l4.929-1.2
		l6.042-0.693l3.841-0.635l11.575-4.998l6.64-4.531l0.335-2.91l-3.984,0.002l-5.973-0.965l-5.215-0.977l-4.41,0.658l-4.819,0.457
		l-7.723-0.335l-6.605,0.168l-7.709,0.198l-7.186-0.891c0,0-26.246,0.561-30.843,0.258l-11.039-0.787l-7.172-0.354l-7.706,0.2
		l-5.492,0.679l-6.175,0.049l-5.908,0.002l-7.173,0.98l-2.615,0.102l-3.542-0.744l-6.779,0.201l-13.061,0.818
		c0,0-15.065,0.291-24.99,0.008l-10.938,0.639l-3.593,0.664l-3.189-0.399l-5.453-0.896l0.172,0.154l-6.431-0.289l-6.01,0.139
		l-3.636,0.449l-4.544-0.445l-4.544,0.449l-7.133,0.813l-4.941,0.663l-2.203,0.059l-5.829-0.609l-11.278-0.561
		c0,0-16.59-1.177-28.139-0.345c0,0-13.909,0.679-22.719,0.905l-6.817,0.002l-4.088-0.446l-5.453,0.001h-2.272l-6.361-0.445
		c0,0-4.723-0.129-6.361,0.449c-1.638,0.582-6.816,0.004-6.816,0.004l-5.452,0.451l-5.907,0.449l-10.905-0.445l-12.723,0.454
		c0,0-15.301,1.196-21.357,1.351C59.244,357.491,45.501,360.13,40.45,360.202"/>
</g>
</svg>
